<svg id="visual" viewBox="0 0 1980 1080" width="1980" height="1080" xmlns="http://www.w3.org/2000/svg" xmlns:xlink="http://www.w3.org/1999/xlink" version="1.1"><path d="M1075 0L1030.7 60C986.3 120 897.7 240 896.2 360C894.7 480 980.3 600 1011.8 720C1043.3 840 1020.7 960 1009.3 1020L998 1080L0 1080L0 1020C0 960 0 840 0 720C0 600 0 480 0 360C0 240 0 120 0 60L0 0Z" fill="#133a85"></path><path d="M653 0L676.5 60C700 120 747 240 767.3 360C787.7 480 781.3 600 735.5 720C689.7 840 604.3 960 561.7 1020L519 1080L0 1080L0 1020C0 960 0 840 0 720C0 600 0 480 0 360C0 240 0 120 0 60L0 0Z" fill="#16377b"></path><path d="M493 0L479 60C465 120 437 240 446.2 360C455.3 480 501.7 600 532.2 720C562.7 840 577.3 960 584.7 1020L592 1080L0 1080L0 1020C0 960 0 840 0 720C0 600 0 480 0 360C0 240 0 120 0 60L0 0Z" fill="#193471"></path><path d="M319 0L329 60C339 120 359 240 385 360C411 480 443 600 435.5 720C428 840 381 960 357.5 1020L334 1080L0 1080L0 1020C0 960 0 840 0 720C0 600 0 480 0 360C0 240 0 120 0 60L0 0Z" fill="#1b3267"></path><path d="M182 0L216.3 60C250.7 120 319.3 240 347.8 360C376.3 480 364.7 600 358.3 720C352 840 351 960 350.5 1020L350 1080L0 1080L0 1020C0 960 0 840 0 720C0 600 0 480 0 360C0 240 0 120 0 60L0 0Z" fill="#1d2f5d"></path><path d="M61 0L62 60C63 120 65 240 90.5 360C116 480 165 600 179.8 720C194.7 840 175.3 960 165.7 1020L156 1080L0 1080L0 1020C0 960 0 840 0 720C0 600 0 480 0 360C0 240 0 120 0 60L0 0Z" fill="#1e2c53"></path></svg>